<?xml version="1.0" standalone="no"?>
<!DOCTYPE svg PUBLIC "-//W3C//DTD SVG 20010904//EN"
 "http://www.w3.org/TR/2001/REC-SVG-20010904/DTD/svg10.dtd">
<svg version="1.0" xmlns="http://www.w3.org/2000/svg"
 width="1536.000000pt" height="1024.000000pt" viewBox="0 0 1536.000000 1024.000000"
 preserveAspectRatio="xMidYMid meet">

<g transform="translate(0.000000,1024.000000) scale(0.100000,-0.100000)"
fill="#000000" stroke="none">
<path d="M9340 9290 c-58 -4 -124 -13 -148 -19 -24 -7 -71 -14 -105 -16 -42
-2 -90 -15 -147 -39 -61 -26 -100 -36 -139 -36 -47 0 -60 -5 -99 -37 -58 -48
-75 -89 -70 -174 4 -68 16 -89 116 -198 13 -14 20 -31 17 -41 -3 -10 -10 -53
-15 -96 -26 -217 -37 -259 -97 -398 -27 -61 -33 -86 -28 -112 3 -19 10 -32 14
-30 4 3 17 -3 27 -12 10 -10 27 -21 37 -25 13 -5 17 -18 17 -66 0 -33 4 -71
10 -85 11 -31 1 -33 -33 -6 -43 34 -314 193 -483 283 -629 336 -1229 527
-1894 602 -195 22 -583 30 -770 16 -773 -59 -1449 -329 -1889 -755 -454 -441
-757 -1024 -890 -1716 -131 -680 -69 -1487 166 -2135 131 -362 250 -585 434
-810 107 -133 193 -208 359 -318 324 -214 600 -295 1038 -304 400 -9 730 39
1131 163 62 19 116 33 119 29 10 -9 -22 -119 -73 -256 -26 -68 -48 -142 -50
-165 -2 -22 -15 -83 -29 -135 -13 -52 -30 -121 -36 -154 -7 -33 -21 -80 -33
-103 -20 -40 -20 -45 -5 -53 9 -5 19 -23 23 -40 5 -23 21 -39 61 -65 29 -19
65 -39 79 -44 33 -12 32 -31 -3 -57 -18 -14 -42 -56 -75 -134 -27 -63 -56
-124 -66 -135 -11 -13 -52 -32 -112 -49 -150 -44 -347 -114 -409 -144 -31 -15
-128 -52 -216 -81 -197 -65 -204 -69 -281 -143 -61 -58 -63 -62 -63 -111 l0
-51 -812 3 c-447 2 -828 0 -845 -3 -27 -5 -33 -11 -33 -30 0 -15 9 -29 21 -36
16 -8 1116 -9 4333 -5 2371 4 4335 9 4364 12 44 5 55 10 64 30 6 13 8 27 4 32
-4 4 -165 8 -358 10 -258 2 -354 6 -363 15 -6 7 -17 68 -24 137 -18 185 -59
501 -130 1005 -93 663 -124 915 -126 1005 -1 52 -6 104 -12 115 -6 11 -13 37
-17 57 l-7 38 51 1 c27 1 55 3 60 4 6 1 17 3 25 4 8 0 15 7 15 15 0 8 9 18 20
21 30 10 38 33 46 131 l7 89 55 18 c31 10 110 44 176 77 286 138 436 280 556
525 97 197 140 390 140 626 -1 479 -195 924 -595 1364 -34 38 -44 56 -41 75 3
14 8 59 11 100 8 99 23 219 37 303 l11 67 -33 48 c-18 26 -47 62 -64 80 -27
29 -35 32 -88 32 -57 0 -57 0 -137 -72 l-80 -72 -6 -83 c-4 -46 -10 -83 -13
-83 -3 0 -55 38 -117 84 -61 47 -154 112 -207 146 l-96 61 -31 88 c-18 49 -49
116 -69 150 -45 75 -164 214 -212 249 -19 14 -63 55 -96 90 -57 59 -64 70 -88
158 -15 52 -38 126 -52 166 -13 39 -24 78 -24 85 0 8 20 23 45 34 25 11 45 23
45 27 0 5 23 25 50 46 40 31 58 55 89 120 66 140 75 182 75 356 0 183 -18 263
-86 386 -58 103 -173 205 -313 274 -148 75 -291 97 -515 80z m290 -85 c25 -20
53 -27 60 -14 10 16 179 -60 245 -110 192 -146 263 -308 252 -576 -3 -84 -11
-130 -32 -194 -26 -79 -33 -90 -103 -158 -41 -41 -88 -81 -104 -89 -37 -19
-80 -11 -147 27 l-51 29 0 53 c-1 85 -26 202 -55 256 -33 59 -58 71 -155 71
-55 0 -78 -6 -126 -30 -32 -16 -59 -30 -60 -30 -1 0 -4 46 -7 103 -5 100 -28
188 -64 244 -38 58 -138 81 -256 59 -40 -8 -102 -17 -139 -21 -65 -7 -67 -6
-109 26 -24 19 -51 43 -61 54 -41 48 -34 142 15 188 30 28 34 29 103 22 57 -5
72 -4 77 8 5 15 114 48 223 68 80 15 367 36 429 31 28 -3 57 -10 65 -17z m37
-1 c-3 -3 -12 -4 -19 -1 -8 3 -5 6 6 6 11 1 17 -2 13 -5z m-460 -439 c40 -28
65 -118 72 -258 5 -104 9 -130 22 -137 14 -8 15 -18 7 -61 -9 -51 -5 -99 10
-99 23 1 37 26 47 86 l11 67 53 30 c39 22 70 31 121 35 64 4 69 3 84 -20 22
-33 46 -163 46 -246 0 -77 3 -82 50 -111 80 -47 111 -61 138 -61 34 0 45 -9
33 -24 -16 -18 53 -296 85 -344 17 -26 17 -26 -16 -51 -19 -15 -68 -54 -109
-88 -227 -187 -312 -253 -326 -253 -10 0 -15 9 -15 28 0 28 -52 143 -89 197
-12 17 -21 38 -21 47 0 28 -44 52 -69 38 -22 -11 -37 -10 -171 16 -138 27
-130 21 -294 226 -49 62 -52 68 -34 68 19 0 78 50 78 66 0 23 -26 27 -74 11
-56 -19 -58 -15 -62 103 -1 47 -3 91 -3 98 -1 9 -12 10 -41 6 -39 -6 -40 -6
-40 24 0 17 4 34 10 37 13 8 65 172 85 270 9 43 20 119 24 167 5 48 14 94 21
103 8 9 30 15 59 16 25 0 75 6 111 14 90 18 171 18 197 0z m848 -1264 c44 -13
240 -216 298 -309 26 -42 57 -106 68 -142 103 -326 114 -430 114 -1125 0 -537
-17 -1068 -45 -1406 -8 -99 -14 -125 -40 -174 -16 -31 -30 -65 -30 -75 0 -62
-28 -64 -158 -9 -53 22 -142 56 -196 76 -55 19 -126 48 -158 64 -97 49 -266
119 -288 119 -28 0 -338 117 -371 140 -15 11 -30 20 -34 20 -4 0 -20 11 -37
25 -18 15 -42 25 -62 25 -17 0 -37 5 -42 10 -16 16 -5 70 15 70 9 0 207 1 441
3 l425 2 78 34 c94 41 161 99 216 186 72 114 100 224 126 496 31 338 65 675
75 750 13 90 7 114 -22 98 -11 -6 -26 -25 -33 -44 -14 -32 -68 -479 -80 -660
-10 -137 -35 -375 -46 -423 -14 -65 -36 -112 -64 -138 -14 -13 -25 -31 -25
-42 0 -28 -48 -67 -119 -98 -46 -20 -59 -30 -46 -34 14 -5 15 -8 3 -17 -28
-23 -144 -32 -503 -38 -424 -7 -779 5 -800 26 -9 10 -14 83 -19 275 l-7 261
32 7 c17 3 119 6 226 6 220 0 419 15 478 35 22 8 66 17 98 20 31 4 57 10 57
15 0 28 22 217 27 230 3 8 7 53 9 100 2 47 11 146 19 220 28 237 28 243 13
279 l-14 35 -20 -35 c-12 -20 -24 -57 -27 -85 -3 -27 -11 -80 -16 -119 -12
-78 -38 -302 -51 -439 -6 -53 -14 -92 -22 -97 -7 -4 -31 -11 -53 -15 -22 -3
-62 -15 -90 -26 -29 -11 -89 -21 -144 -25 l-94 -6 7 24 c4 13 10 42 12 64 2
22 8 63 14 90 5 28 14 110 20 183 5 73 12 137 15 142 3 4 0 10 -7 12 -17 6 20
274 62 450 33 139 128 425 166 501 19 37 30 47 49 47 27 0 75 19 75 30 0 4 13
13 30 20 16 7 35 19 42 28 12 13 10 14 -10 3 -12 -6 6 17 40 52 75 76 277 241
331 268 39 20 50 33 20 22 -15 -5 -14 -3 2 10 23 19 30 20 70 8z m-550 -326
c-33 -26 -50 -32 -39 -12 16 28 28 37 48 37 19 0 18 -2 -9 -25z m1733 -267
c35 -35 0 -46 -101 -32 l-46 7 22 18 c25 21 106 26 125 7z m26 -114 c19 -18
19 -16 6 -85 -13 -74 -45 -355 -95 -844 -14 -132 -33 -314 -44 -405 -11 -91
-23 -203 -26 -250 -6 -78 -20 -192 -60 -495 -8 -60 -19 -171 -25 -245 -6 -74
-27 -268 -46 -430 -19 -162 -37 -343 -41 -403 -6 -107 -6 -107 -36 -122 -26
-13 -193 -15 -1305 -15 l-1275 0 -33 36 c-29 30 -34 43 -34 82 1 70 40 122
108 144 97 31 304 37 1315 40 548 1 1002 5 1009 9 9 6 9 16 1 41 -7 26 -6 54
7 119 10 47 30 202 44 345 61 585 78 734 130 1098 30 210 59 448 66 529 6 81
17 198 25 260 8 62 19 155 26 207 6 52 15 100 20 106 5 6 11 64 14 130 9 181
-3 164 124 164 86 0 113 -3 125 -16z m-5315 -158 c-10 -9 -79 -14 -79 -5 0 5
19 9 42 9 23 0 39 -2 37 -4z m74 -189 c21 -61 71 -204 112 -317 41 -113 137
-392 215 -620 144 -426 175 -502 214 -539 21 -20 35 -21 267 -26 714 -14 1071
-15 1176 -5 134 12 158 6 167 -44 12 -64 -2 -75 -91 -70 -43 2 -427 9 -853 15
-544 7 -777 13 -781 21 -4 6 -10 32 -14 57 -10 64 -311 950 -410 1206 -59 151
-145 399 -145 417 0 15 8 18 53 18 l52 0 38 -113z m2611 -1019 c0 -10 -1 -96
-2 -192 -2 -215 -1 -212 -111 -202 -46 4 -97 17 -128 31 -44 20 -56 32 -79 76
-24 47 -26 61 -22 131 3 49 10 84 19 93 16 17 262 83 299 81 17 -1 25 -7 24
-18z m-669 -22 c33 -10 96 -33 140 -52 44 -20 89 -36 100 -37 18 -2 20 -10 23
-74 l3 -72 -38 -16 c-20 -9 -44 -21 -53 -28 -25 -21 -122 -56 -165 -59 -36 -3
-40 -1 -39 20 0 12 -3 22 -8 22 -4 0 -7 10 -5 23 l2 22 -187 -1 c-168 -1 -188
1 -188 16 0 24 25 56 34 42 10 -16 98 -15 119 1 40 30 -36 65 -173 79 l-111
11 -27 -25 c-15 -14 -36 -29 -48 -32 -11 -3 -49 -26 -84 -51 -66 -46 -86 -53
-92 -34 -3 9 -10 9 -28 0 -37 -19 77 86 135 124 74 48 171 95 250 122 64 22
82 23 225 19 100 -3 176 -10 215 -20z m-441 -237 c-12 -13 -20 -16 -22 -9 -3
7 2 16 9 21 25 16 32 9 13 -12z m-314 -39 c-24 -19 -40 -25 -40 -15 0 5 51 34
60 34 3 0 -6 -8 -20 -19z m1167 -136 c43 -21 73 -28 148 -32 66 -3 95 -9 99
-18 9 -23 -29 -34 -116 -34 -113 0 -153 12 -167 50 -5 17 -15 30 -20 30 -6 0
-11 7 -11 15 0 20 4 19 67 -11z m-81 -120 c-3 -9 2 -14 12 -14 15 0 15 -2 2
-10 -8 -5 -25 -10 -37 -10 -20 0 -23 5 -23 40 l0 40 26 -16 c14 -9 23 -23 20
-30z m368 -43 c9 -13 -18 -17 -134 -20 -103 -3 -123 4 -58 19 46 11 186 12
192 1z m-1094 -1035 c0 -7 -13 -19 -28 -25 -16 -7 -52 -35 -80 -64 -40 -41
-62 -77 -101 -166 -28 -63 -90 -189 -139 -280 -48 -91 -99 -190 -112 -218 -42
-93 -31 -51 26 103 124 335 159 424 205 521 49 103 58 112 129 136 34 12 100
7 100 -7z m680 -2 c0 -1 -16 -26 -35 -55 -32 -49 -35 -60 -35 -126 l0 -72 54
-58 53 -57 102 -4 101 -4 0 -52 c0 -108 -65 -814 -89 -969 -6 -34 -13 -120
-16 -192 -3 -71 -17 -231 -30 -355 -13 -124 -26 -261 -30 -305 -7 -93 -53
-462 -61 -486 -4 -15 -28 -18 -167 -23 -89 -3 -214 -8 -277 -11 -149 -7 -126
9 33 23 135 12 148 19 167 88 30 105 -17 270 -100 353 l-47 47 -28 147 c-15
81 -27 150 -27 154 0 8 11 11 99 33 37 9 42 14 47 48 4 22 0 59 -9 92 -9 30
-22 111 -31 180 -8 69 -24 193 -35 275 -10 83 -24 206 -29 275 -15 190 -72
699 -104 927 -3 18 -1 35 3 37 4 3 6 21 5 42 -3 34 -2 36 24 31 153 -28 142
-28 247 -3 55 13 126 23 158 22 31 0 57 -1 57 -2z m2168 -400 c1 -16 11 -92
22 -169 39 -271 149 -1112 170 -1295 49 -422 101 -821 110 -845 6 -15 10 -31
10 -36 0 -6 -395 -8 -1037 -7 l-1038 3 -1 35 c-3 68 14 277 35 430 18 136 42
358 72 670 14 148 47 440 69 605 11 83 29 242 40 355 11 113 22 223 25 245 l5
40 758 -1 757 -2 3 -28z m-1592 9 c-3 -10 -12 -90 -21 -178 -8 -88 -26 -250
-40 -360 -27 -221 -61 -520 -70 -605 -16 -177 -50 -482 -71 -656 -20 -164 -53
-500 -54 -551 0 -10 -30 -13 -115 -13 l-115 0 6 47 c3 27 12 95 20 153 16 118
89 846 99 985 3 50 22 236 40 415 19 179 41 417 50 530 9 113 18 215 21 228 4
21 8 22 130 22 115 0 125 -1 120 -17z m1904 -35 c7 -29 16 -102 20 -163 9
-117 67 -573 165 -1280 48 -345 105 -803 105 -837 0 -16 6 -28 13 -29 6 -1 1
-5 -13 -9 -30 -10 -156 -12 -197 -4 l-30 6 -41 341 c-23 188 -58 475 -77 637
-30 247 -91 721 -110 850 -32 220 -75 522 -75 530 0 6 45 10 114 10 l114 0 12
-52z m-3691 -525 c-21 -54 -1 -289 56 -668 8 -55 20 -156 25 -224 5 -68 12
-126 15 -129 5 -6 33 -8 136 -11 l47 -1 10 -77 c6 -43 12 -108 14 -144 3 -64
2 -66 -32 -96 -37 -32 -90 -61 -167 -92 -113 -45 -423 -202 -456 -231 -33 -29
-37 -37 -37 -81 l0 -49 -114 0 -114 0 14 37 c8 23 13 81 13 143 1 113 -17 174
-60 209 l-21 17 32 104 c17 58 37 131 43 163 l11 57 92 0 c125 0 126 1 197
222 92 286 195 619 212 687 18 69 73 191 86 191 5 0 4 -12 -2 -27z m-848 -999
c60 -27 154 -54 185 -54 12 0 -2 -68 -58 -289 l-11 -44 -121 5 c-67 3 -130 10
-141 16 -11 7 -50 25 -88 42 -37 16 -70 35 -73 43 -7 19 111 266 144 300 32
33 51 31 163 -19z m1559 -44 c0 -17 11 -83 25 -147 27 -123 55 -185 105 -230
33 -29 68 -121 77 -204 9 -90 1 -93 -267 -104 -227 -9 -444 -24 -580 -40 -371
-42 -400 -43 -400 -4 0 32 47 68 150 117 52 24 177 84 277 133 101 49 186 89
190 89 4 0 17 10 30 22 l23 22 58 -19 c45 -15 83 -19 185 -17 133 2 187 16
187 48 0 25 -39 31 -160 26 -68 -3 -138 0 -171 7 l-56 12 -12 134 c-9 107 -9
139 1 154 13 21 27 23 261 29 l77 2 0 -30z m-1867 -336 c69 -50 164 -74 312
-80 162 -7 162 -7 174 -52 18 -63 13 -201 -9 -249 l-19 -42 -178 -3 c-285 -5
-1351 -3 -1356 2 -3 3 -9 18 -12 33 -7 24 -1 34 39 72 25 24 59 51 76 60 17 9
165 60 328 114 163 55 342 117 397 140 132 54 178 55 248 5z"/>
<path d="M9988 8200 c-56 -60 -46 -71 12 -14 55 53 55 54 38 54 -6 0 -28 -18
-50 -40z"/>
<path d="M8870 8475 c-11 -29 -14 -134 -4 -159 9 -24 43 -20 49 7 2 12 6 56 7
97 3 71 2 75 -19 78 -17 3 -26 -3 -33 -23z"/>
<path d="M9391 8067 c-6 -6 -11 -22 -11 -35 0 -20 4 -23 28 -20 21 2 28 9 30
29 2 19 -2 28 -17 32 -10 2 -24 0 -30 -6z"/>
<path d="M10024 7044 c-18 -14 -18 -15 4 -4 12 6 22 13 22 15 0 8 -5 6 -26
-11z"/>
<path d="M9415 6563 c-80 -24 -74 -32 10 -12 43 10 80 21 83 24 10 10 -43 4
-93 -12z"/>
<path d="M9861 5179 c-35 -5 -66 -11 -69 -14 -7 -7 65 -5 113 3 61 11 28 19
-44 11z"/>
<path d="M9588 5013 c7 -3 16 -2 19 1 4 3 -2 6 -13 5 -11 0 -14 -3 -6 -6z"/>
<path d="M7850 3740 c-11 -8 -7 -9 15 -4 37 8 45 14 19 14 -10 0 -26 -5 -34
-10z"/>
<path d="M6784 1136 c-15 -12 -17 -18 -8 -33 23 -37 87 -10 71 31 -8 20 -37
21 -63 2z"/>
<path d="M4893 1175 c-27 -19 -29 -37 -8 -55 26 -22 67 3 63 37 -4 33 -25 39
-55 18z"/>
</g>
</svg>
